<svg width="126" height="204" viewBox="0 0 126 204" fill="none" xmlns="http://www.w3.org/2000/svg">
<path d="M63.3584 1.27637C63.3589 1.27857 63.3594 1.28213 63.3604 1.28613C63.3626 1.29548 63.3664 1.31003 63.3711 1.3291C63.3807 1.36809 63.3961 1.42717 63.416 1.50586C63.424 1.53749 63.4336 1.57238 63.4434 1.61035C63.4744 1.61775 63.4746 1.61805 63.4746 1.61816L63.4736 1.61914C63.4734 1.61982 63.4729 1.62109 63.4727 1.62207C63.4719 1.62506 63.471 1.62954 63.4697 1.63477C63.4674 1.64451 63.4641 1.65822 63.46 1.67578C63.4969 1.81879 63.5433 1.9999 63.6016 2.2168C63.7704 2.84523 64.0309 3.78042 64.3984 4.99902C65.1337 7.43679 66.2952 11.0104 67.9961 15.541C71.3982 24.603 76.96 37.4923 85.5889 52.7773C94.181 67.9974 103.789 77.0044 111.225 82.2021C114.944 84.8019 118.123 86.4515 120.363 87.4482C121.484 87.9466 122.369 88.2826 122.971 88.4922C123.271 88.5969 123.501 88.6692 123.653 88.7158C123.729 88.7391 123.787 88.7561 123.823 88.7666C123.842 88.7718 123.855 88.7761 123.863 88.7783C123.867 88.7793 123.87 88.7798 123.871 88.7803L123.873 88.7812L123.485 90.2295L123.483 90.2285C123.482 90.2283 123.481 90.2289 123.479 90.2285C123.476 90.2275 123.47 90.2254 123.464 90.2236C123.451 90.2202 123.434 90.2154 123.411 90.209C123.366 90.196 123.3 90.1763 123.216 90.1504C123.046 90.0983 122.796 90.0195 122.477 89.9082C121.838 89.6856 120.913 89.3344 119.753 88.8184C117.432 87.786 114.169 86.0915 110.365 83.4326C102.754 78.1121 92.9895 68.9386 84.2822 53.5146C75.6119 38.1562 70.0184 25.1963 66.5918 16.0693C65.2731 12.5568 64.276 9.61099 63.5469 7.31543L63.5469 202.61H62.0469L62.0469 6.66016C61.3114 9.03553 60.2608 12.2011 58.8223 16.0479C55.4126 25.1653 49.8287 38.116 41.127 53.4756C32.3895 68.8983 22.6514 78.1038 15.0742 83.458C11.287 86.1341 8.0424 87.8464 5.73633 88.8916C4.5838 89.414 3.66555 89.7697 3.03125 89.9961C2.71407 90.1093 2.46686 90.191 2.29785 90.2441C2.21374 90.2706 2.14857 90.2895 2.10352 90.3027C2.08095 90.3094 2.06323 90.3148 2.05078 90.3184C2.04464 90.3201 2.03977 90.3222 2.03613 90.3232C2.03437 90.3237 2.0324 90.3239 2.03125 90.3242H2.03027L1.63086 88.8789H1.63184C1.63325 88.8785 1.63601 88.8771 1.63965 88.876C1.64779 88.8737 1.66244 88.8696 1.68066 88.8643C1.71711 88.8535 1.77347 88.8371 1.84863 88.8135C1.99978 88.766 2.22794 88.6905 2.52637 88.584C3.12368 88.3708 4.00404 88.0299 5.11719 87.5254C7.3441 86.5161 10.5056 84.8503 14.209 82.2334C21.6134 77.0013 31.1983 67.9587 39.8223 52.7363C48.4816 37.4516 54.0322 24.5725 57.417 15.5215C59.1093 10.9963 60.2605 7.4277 60.9873 4.99414C61.3507 3.77743 61.6083 2.8439 61.7744 2.2168C61.8314 2.00156 61.8761 1.82195 61.9121 1.67969C61.9078 1.6618 61.9057 1.64757 61.9033 1.6377C61.902 1.6322 61.9001 1.62798 61.8994 1.625C61.8992 1.62388 61.8994 1.62287 61.8994 1.62207L61.8984 1.62109C61.8984 1.62098 61.8984 1.62086 61.9297 1.61328C61.9393 1.57525 61.9491 1.54046 61.957 1.50879C61.9766 1.43025 61.9906 1.37093 62 1.33203C62.0047 1.31257 62.0085 1.29742 62.0107 1.28809C62.0118 1.28376 62.0132 1.28041 62.0137 1.27832V1.27637C62.0165 1.27705 62.0596 1.28568 62.6846 1.43164C63.3012 1.28498 63.3532 1.27348 63.3574 1.27246C63.3575 1.27289 63.3581 1.2753 63.3584 1.27637Z" fill="#FCFCFC"/>
<path d="M63.3584 1.27637L64.3316 1.04646L64.3309 1.04328L63.3584 1.27637ZM63.3604 1.28613L62.3883 1.52085L62.3883 1.52099L63.3604 1.28613ZM63.3711 1.3291L62.3999 1.56734L62.3999 1.56739L63.3711 1.3291ZM63.416 1.50586L62.4465 1.75107L62.4465 1.75108L63.416 1.50586ZM63.4434 1.61035L62.4747 1.8589L62.6247 2.44346L63.2118 2.58318L63.4434 1.61035ZM63.4746 1.61816L64.1817 2.32527L64.3834 2.12364L64.4483 1.84598L63.4746 1.61816ZM63.4736 1.61914L62.7665 0.912034L62.5903 1.08829L62.5174 1.32665L63.4736 1.61914ZM63.4727 1.62207L64.4449 1.85603L64.4461 1.85119L63.4727 1.62207ZM63.4697 1.63477L62.4968 1.40361L62.4968 1.40381L63.4697 1.63477ZM63.46 1.67578L62.4868 1.44581L62.4299 1.68652L62.4918 1.926L63.46 1.67578ZM63.6016 2.2168L62.6358 2.47619L62.6358 2.4762L63.6016 2.2168ZM64.3984 4.99902L63.441 5.28778L63.441 5.28778L64.3984 4.99902ZM67.9961 15.541L67.0599 15.8925L67.0599 15.8925L67.9961 15.541ZM85.5889 52.7773L84.718 53.2689L84.718 53.2689L85.5889 52.7773ZM111.225 82.2021L110.652 83.0218L110.652 83.0218L111.225 82.2021ZM120.363 87.4482L119.957 88.3619L119.957 88.3619L120.363 87.4482ZM122.971 88.4922L122.642 89.4365L122.642 89.4365L122.971 88.4922ZM123.653 88.7158L123.361 89.6721L123.361 89.6721L123.653 88.7158ZM123.823 88.7666L123.548 89.7281L123.548 89.7281L123.823 88.7666ZM123.863 88.7783L123.597 89.7423L123.597 89.7423L123.863 88.7783ZM123.871 88.7803L124.318 87.8858L124.25 87.8517L124.177 87.8283L123.871 88.7803ZM123.873 88.7812L124.839 89.0398L125.05 88.2517L124.32 87.8868L123.873 88.7812ZM123.485 90.2295L123.038 91.1239L124.134 91.672L124.451 90.4881L123.485 90.2295ZM123.483 90.2285L123.931 89.3341L123.827 89.2822L123.714 89.2555L123.483 90.2285ZM123.479 90.2285L123.218 91.1936L123.225 91.1957L123.233 91.1977L123.479 90.2285ZM123.464 90.2236L123.73 89.2597L123.73 89.2596L123.464 90.2236ZM123.411 90.209L123.136 91.1705L123.136 91.1705L123.411 90.209ZM123.216 90.1504L122.923 91.1067L122.923 91.1067L123.216 90.1504ZM122.477 89.9082L122.147 90.8525L122.147 90.8525L122.477 89.9082ZM119.753 88.8184L119.346 89.732L119.346 89.732L119.753 88.8184ZM110.365 83.4326L109.792 84.2522L109.792 84.2522L110.365 83.4326ZM84.2822 53.5146L83.4114 54.0063L83.4114 54.0063L84.2822 53.5146ZM66.5918 16.0693L65.6556 16.4208L65.6556 16.4208L66.5918 16.0693ZM63.5469 7.31543L64.5 7.0127L62.5469 7.31543H63.5469ZM63.5469 202.61V203.61H64.5469V202.61H63.5469ZM62.0469 202.61H61.0469V203.61H62.0469V202.61ZM62.0469 6.66016H63.0469L61.0916 6.36439L62.0469 6.66016ZM58.8223 16.0479L59.7589 16.3981L59.7589 16.3981L58.8223 16.0479ZM41.127 53.4756L41.997 53.9685L41.997 53.9685L41.127 53.4756ZM15.0742 83.458L15.6513 84.2747L15.6513 84.2747L15.0742 83.458ZM5.73633 88.8916L6.14913 89.8024L6.14914 89.8024L5.73633 88.8916ZM3.03125 89.9961L3.3674 90.9379L3.36742 90.9379L3.03125 89.9961ZM2.29785 90.2441L2.59767 91.1981L2.5977 91.1981L2.29785 90.2441ZM2.10352 90.3027L2.38577 91.2621L2.38581 91.2621L2.10352 90.3027ZM2.05078 90.3184L2.32437 91.2802L2.32439 91.2802L2.05078 90.3184ZM2.03613 90.3232L1.76677 89.3602L1.76071 89.3619L2.03613 90.3232ZM2.03125 90.3242L2.03125 91.3242H2.1673L2.29841 91.2879L2.03125 90.3242ZM2.03027 90.3242L1.0664 90.5906L1.26914 91.3242H2.03027L2.03027 90.3242ZM1.63086 88.8789L1.63086 87.8789H0.317025L0.666988 89.1453L1.63086 88.8789ZM1.63184 88.8789L1.63184 89.8789H1.76902L1.90114 89.842L1.63184 88.8789ZM1.63965 88.876L1.36604 87.9141L1.35668 87.9168L1.63965 88.876ZM1.68066 88.8643L1.96292 89.8236L1.96301 89.8236L1.68066 88.8643ZM1.84863 88.8135L2.14847 89.7675L2.14848 89.7675L1.84863 88.8135ZM2.52637 88.584L2.8625 89.5258L2.86253 89.5258L2.52637 88.584ZM5.11719 87.5254L5.52999 88.4362L5.53 88.4362L5.11719 87.5254ZM14.209 82.2334L14.7861 83.0501L14.7861 83.0501L14.209 82.2334ZM39.8223 52.7363L40.6923 53.2293L40.6923 53.2293L39.8223 52.7363ZM57.417 15.5215L58.3536 15.8718L58.3536 15.8718L57.417 15.5215ZM60.9873 4.99414L61.9455 5.28031L61.9455 5.28031L60.9873 4.99414ZM61.7744 2.2168L62.7411 2.47293L62.7411 2.47292L61.7744 2.2168ZM61.9121 1.67969L62.8815 1.92527L62.9419 1.68665L62.8847 1.44723L61.9121 1.67969ZM61.9033 1.6377L62.8754 1.40288L62.8751 1.40185L61.9033 1.6377ZM61.8994 1.625L60.923 1.84071L60.9249 1.84942L60.927 1.85809L61.8994 1.625ZM61.8994 1.62207L62.8991 1.59613L62.8887 1.19717L62.6065 0.914964L61.8994 1.62207ZM61.8984 1.62109L60.9257 1.85284L60.9912 2.12811L61.1913 2.3282L61.8984 1.62109ZM61.9297 1.61328L62.1654 2.58511L62.7521 2.44282L62.8994 1.85735L61.9297 1.61328ZM61.957 1.50879L62.9274 1.75041L62.9274 1.75039L61.957 1.50879ZM62 1.33203L61.0279 1.09755L61.0279 1.09758L62 1.33203ZM62.0107 1.28809L62.9837 1.51903L62.9837 1.51892L62.0107 1.28809ZM62.0137 1.27832L62.9872 1.507L63.0137 1.3942V1.27832H62.0137ZM62.0137 1.27637L62.2454 0.30358L61.0137 0.0102102V1.27637H62.0137ZM62.6846 1.43164L62.4571 2.40544L62.6867 2.45904L62.9159 2.40451L62.6846 1.43164ZM63.3574 1.27246L64.3301 1.04023L64.0975 0.0660213L63.1236 0.300171L63.3574 1.27246ZM63.3584 1.27637L62.3852 1.50627C62.3823 1.49389 62.3801 1.48372 62.3788 1.47704C62.3774 1.47025 62.3764 1.46488 62.3758 1.46197C62.3753 1.45909 62.3749 1.45691 62.3749 1.45685C62.3747 1.45576 62.3751 1.45808 62.3753 1.4592C62.3759 1.46262 62.3774 1.47075 62.3794 1.48092C62.3815 1.49129 62.3844 1.50494 62.3883 1.52085L63.3604 1.28613L64.3324 1.05141C64.3358 1.06532 64.3383 1.07702 64.34 1.08553C64.3416 1.09383 64.3428 1.10019 64.3431 1.10194C64.3432 1.10223 64.3434 1.10374 64.3431 1.10189C64.343 1.10105 64.3424 1.09814 64.3418 1.09455C64.3411 1.09093 64.3399 1.08489 64.3384 1.07747C64.3369 1.07016 64.3347 1.05939 64.3316 1.04646L63.3584 1.27637ZM63.3604 1.28613L62.3883 1.52099C62.3899 1.52762 62.3914 1.53363 62.3924 1.53766C62.3935 1.5417 62.3946 1.54617 62.3953 1.54917C62.3971 1.55598 62.3985 1.56148 62.3999 1.56734L63.3711 1.3291L64.3423 1.09086C64.3391 1.07765 64.3362 1.06635 64.3343 1.05877C64.3332 1.05458 64.3327 1.05247 64.3322 1.05055C64.3317 1.04864 64.3319 1.04932 64.3324 1.05127L63.3604 1.28613ZM63.3711 1.3291L62.3999 1.56739C62.4102 1.60949 62.4301 1.68594 62.4465 1.75107L63.416 1.50586L64.3855 1.26065C64.3622 1.1684 64.3511 1.12669 64.3423 1.09081L63.3711 1.3291ZM63.416 1.50586L62.4465 1.75108C62.4522 1.77326 62.458 1.79528 62.4624 1.81193C62.4673 1.83022 62.471 1.84446 62.4747 1.8589L63.4434 1.61035L64.412 1.3618C64.3904 1.27773 64.3989 1.31353 64.3855 1.26064L63.416 1.50586ZM63.4434 1.61035L63.2118 2.58318C63.2273 2.58686 63.2269 2.58686 63.2208 2.58527C63.2187 2.58472 63.2138 2.58346 63.2074 2.5817C63.2027 2.5804 63.1883 2.57642 63.1698 2.57052C63.1606 2.56756 63.1435 2.56199 63.1225 2.55408C63.1061 2.54791 63.0618 2.53095 63.0082 2.50268C62.9827 2.48925 62.8126 2.40374 62.6721 2.21479C62.5851 2.09775 62.5092 1.94152 62.4836 1.75207C62.4595 1.57377 62.4906 1.43452 62.5009 1.39035L63.4746 1.61816L64.4483 1.84598C64.4587 1.8018 64.4897 1.66255 64.4656 1.48423C64.44 1.29478 64.3641 1.13854 64.2771 1.02149C64.1366 0.832518 63.9665 0.746984 63.9409 0.733523C63.8873 0.705217 63.8428 0.688215 63.8263 0.681992C63.8051 0.67403 63.7879 0.668391 63.7784 0.66535C63.7478 0.655575 63.7217 0.649021 63.7205 0.648708C63.7065 0.645092 63.6905 0.641233 63.6749 0.637523L63.4434 1.61035ZM63.4746 1.61816L62.7675 0.911057L62.7665 0.912034L63.4736 1.61914L64.1807 2.32625L64.1817 2.32527L63.4746 1.61816ZM63.4736 1.61914L62.5174 1.32665C62.522 1.31163 62.526 1.29979 62.5282 1.29343C62.5305 1.28669 62.5324 1.28145 62.5332 1.27926C62.5339 1.27722 62.5347 1.27521 62.5343 1.2762C62.5342 1.27641 62.5334 1.27861 62.5324 1.28133C62.5306 1.28634 62.5262 1.29881 62.521 1.31482C62.5162 1.32985 62.5076 1.3576 62.4993 1.39295L63.4727 1.62207L64.4461 1.85119C64.4378 1.88605 64.4294 1.91327 64.4248 1.92777C64.4198 1.94325 64.4155 1.95517 64.4139 1.95965C64.4134 1.96098 64.413 1.96206 64.4128 1.96277C64.4125 1.96345 64.4123 1.96397 64.4123 1.96401C64.412 1.96476 64.4129 1.9625 64.4137 1.96023C64.4146 1.95781 64.4165 1.95236 64.4189 1.94541C64.4212 1.93885 64.4253 1.92682 64.4299 1.91163L63.4736 1.61914ZM63.4727 1.62207L62.5004 1.38811C62.499 1.39397 62.4979 1.39881 62.4974 1.40113C62.4968 1.40341 62.4963 1.40588 62.4962 1.40623C62.4958 1.4081 62.4962 1.40629 62.4968 1.40361L63.4697 1.63477L64.4426 1.86592C64.4445 1.85801 64.446 1.85135 64.4466 1.84893C64.447 1.84713 64.4469 1.8476 64.4468 1.84804C64.4467 1.84851 64.446 1.85167 64.4449 1.85603L63.4727 1.62207ZM63.4697 1.63477L62.4968 1.40381C62.496 1.40704 62.4905 1.42995 62.4868 1.44581L63.46 1.67578L64.4332 1.90575C64.4377 1.8865 64.4388 1.88197 64.4427 1.86572L63.4697 1.63477ZM63.46 1.67578L62.4918 1.926C62.5282 2.06703 62.576 2.2536 62.6358 2.47619L63.6016 2.2168L64.5673 1.9574C64.5106 1.74619 64.4656 1.57056 64.4282 1.42556L63.46 1.67578ZM63.6016 2.2168L62.6358 2.4762C62.807 3.11376 63.0704 4.05877 63.441 5.28778L64.3984 4.99902L65.3558 4.71027C64.9914 3.50208 64.7337 2.5767 64.5673 1.95739L63.6016 2.2168ZM64.3984 4.99902L63.441 5.28778C64.1823 7.74558 65.3508 11.3402 67.0599 15.8925L67.9961 15.541L68.9323 15.1895C67.2395 10.6807 66.085 7.128 65.3558 4.71027L64.3984 4.99902ZM67.9961 15.541L67.0599 15.8925C70.4783 24.9979 76.0614 37.9347 84.718 53.2689L85.5889 52.7773L86.4597 52.2857C77.8586 37.05 72.3181 24.2081 68.9323 15.1895L67.9961 15.541ZM85.5889 52.7773L84.718 53.2689C93.387 68.6249 103.099 77.7421 110.652 83.0218L111.225 82.2021L111.798 81.3825C104.479 76.2666 94.9751 67.3698 86.4597 52.2857L85.5889 52.7773ZM111.225 82.2021L110.652 83.0218C114.427 85.6611 117.663 87.3414 119.957 88.3619L120.363 87.4482L120.77 86.5346C118.582 85.5616 115.46 83.9428 111.798 81.3825L111.225 82.2021ZM120.363 87.4482L119.957 88.3619C121.103 88.8719 122.015 89.2181 122.642 89.4365L122.971 88.4922L123.3 87.5479C122.724 87.3471 121.864 87.0212 120.77 86.5346L120.363 87.4482ZM122.971 88.4922L122.642 89.4365C122.957 89.5464 123.2 89.6227 123.361 89.6721L123.653 88.7158L123.946 87.7596C123.802 87.7157 123.585 87.6474 123.3 87.5479L122.971 88.4922ZM123.653 88.7158L123.361 89.6721C123.439 89.696 123.503 89.7151 123.548 89.7281L123.823 88.7666L124.098 87.8051C124.07 87.7971 124.02 87.7822 123.946 87.7596L123.653 88.7158ZM123.823 88.7666L123.548 89.7281C123.552 89.7291 123.556 89.7302 123.562 89.732C123.564 89.7328 123.569 89.7343 123.574 89.7357C123.579 89.737 123.587 89.7395 123.597 89.7423L123.863 88.7783L124.129 87.8144C124.135 87.816 124.139 87.8171 124.138 87.8169C124.137 87.8167 124.136 87.8164 124.132 87.8151C124.125 87.813 124.113 87.8093 124.098 87.8051L123.823 88.7666ZM123.863 88.7783L123.597 89.7423C123.621 89.749 123.641 89.7534 123.643 89.7539C123.644 89.7542 123.643 89.7538 123.641 89.7535C123.64 89.7531 123.636 89.7521 123.63 89.7508C123.625 89.7496 123.617 89.7475 123.607 89.7447C123.597 89.742 123.582 89.7378 123.565 89.7323L123.871 88.7803L124.177 87.8283C124.159 87.8226 124.145 87.8183 124.134 87.8155C124.123 87.8126 124.115 87.8103 124.109 87.8089C124.103 87.8075 124.099 87.8064 124.096 87.8059C124.095 87.8056 124.094 87.8054 124.093 87.8052C124.093 87.8052 124.093 87.8051 124.093 87.8051C124.093 87.8051 124.093 87.805 124.093 87.805C124.093 87.805 124.092 87.805 124.092 87.805C124.092 87.8049 124.109 87.8087 124.129 87.8144L123.863 88.7783ZM123.871 88.7803L123.424 89.6747L123.426 89.6757L123.873 88.7812L124.32 87.8868L124.318 87.8858L123.871 88.7803ZM123.873 88.7812L122.907 88.5227L122.519 89.9709L123.485 90.2295L124.451 90.4881L124.839 89.0398L123.873 88.7812ZM123.485 90.2295L123.933 89.3351L123.931 89.3341L123.483 90.2285L123.036 91.1229L123.038 91.1239L123.485 90.2295ZM123.483 90.2285L123.714 89.2555C123.678 89.247 123.645 89.2412 123.615 89.2372C123.585 89.2332 123.558 89.231 123.534 89.2298C123.511 89.2286 123.49 89.2283 123.472 89.2285C123.454 89.2287 123.438 89.2294 123.426 89.2301C123.413 89.2308 123.402 89.2317 123.394 89.2324C123.386 89.2331 123.379 89.2338 123.375 89.2343C123.37 89.2347 123.367 89.2351 123.367 89.2352C123.365 89.2354 123.368 89.2351 123.369 89.2349C123.372 89.2346 123.376 89.2341 123.382 89.2336C123.387 89.233 123.395 89.2323 123.404 89.2316C123.421 89.2303 123.446 89.2288 123.476 89.2286C123.535 89.2284 123.623 89.2332 123.726 89.2593L123.479 90.2285L123.233 91.1977C123.337 91.224 123.425 91.2289 123.485 91.2286C123.516 91.2285 123.541 91.227 123.558 91.2256C123.567 91.2249 123.575 91.2242 123.581 91.2236C123.587 91.223 123.591 91.2225 123.594 91.2222C123.596 91.222 123.598 91.2217 123.597 91.2219C123.597 91.2219 123.594 91.2223 123.59 91.2227C123.586 91.2232 123.579 91.2238 123.571 91.2246C123.563 91.2253 123.552 91.2261 123.539 91.2268C123.527 91.2276 123.511 91.2282 123.494 91.2284C123.476 91.2286 123.455 91.2283 123.432 91.2271C123.408 91.2259 123.381 91.2237 123.351 91.2198C123.322 91.2158 123.289 91.21 123.253 91.2015L123.483 90.2285ZM123.479 90.2285L123.741 89.2634C123.753 89.2665 123.762 89.2693 123.769 89.2712C123.775 89.2732 123.78 89.2748 123.783 89.2757C123.786 89.2766 123.788 89.2772 123.788 89.2773C123.788 89.2774 123.788 89.2774 123.788 89.2773C123.788 89.2773 123.787 89.277 123.786 89.2768C123.784 89.276 123.776 89.2735 123.767 89.2707C123.758 89.2678 123.745 89.2639 123.73 89.2597L123.464 90.2236L123.198 91.1876C123.186 91.1842 123.176 91.1812 123.169 91.1793C123.166 91.1782 123.164 91.1774 123.162 91.1768C123.16 91.1763 123.159 91.1759 123.159 91.1759C123.159 91.1759 123.159 91.1759 123.159 91.176C123.16 91.1761 123.16 91.1764 123.161 91.1766C123.163 91.1771 123.166 91.1782 123.17 91.1795C123.174 91.1808 123.18 91.1827 123.187 91.1849C123.195 91.1871 123.205 91.1902 123.218 91.1936L123.479 90.2285ZM123.464 90.2236L123.73 89.2596C123.711 89.2544 123.702 89.2522 123.686 89.2475L123.411 90.209L123.136 91.1705C123.165 91.1786 123.192 91.1859 123.198 91.1877L123.464 90.2236ZM123.411 90.209L123.686 89.2475C123.651 89.2374 123.594 89.2203 123.508 89.1941L123.216 90.1504L122.923 91.1067C123.007 91.1322 123.081 91.1546 123.136 91.1705L123.411 90.209ZM123.216 90.1504L123.508 89.1941C123.347 89.1449 123.11 89.0701 122.806 88.9639L122.477 89.9082L122.147 90.8525C122.482 90.9689 122.744 91.0517 122.923 91.1067L123.216 90.1504ZM122.477 89.9082L122.806 88.9639C122.192 88.7501 121.293 88.409 120.159 87.9047L119.753 88.8184L119.346 89.732C120.533 90.2597 121.483 90.6211 122.147 90.8525L122.477 89.9082ZM119.753 88.8184L120.159 87.9047C117.892 86.896 114.685 85.2322 110.938 82.613L110.365 83.4326L109.792 84.2522C113.653 86.9508 116.973 88.676 119.346 89.732L119.753 88.8184ZM110.365 83.4326L110.938 82.613C103.444 77.3743 93.7836 68.3111 85.153 53.023L84.2822 53.5146L83.4114 54.0063C92.1954 69.5661 102.064 78.8498 109.792 84.2522L110.365 83.4326ZM84.2822 53.5146L85.153 53.023C76.5105 37.7138 70.9383 24.8014 67.528 15.7179L66.5918 16.0693L65.6556 16.4208C69.0985 25.5912 74.7133 38.5985 83.4114 54.0063L84.2822 53.5146ZM66.5918 16.0693L67.528 15.7179C66.2156 12.2223 65.2242 9.29278 64.5 7.0127L63.5469 7.31543L62.5938 7.61816C63.3279 9.92919 64.3305 12.8913 65.6556 16.4208L66.5918 16.0693ZM63.5469 7.31543H62.5469L62.5469 202.61H63.5469H64.5469L64.5469 7.31543H63.5469ZM63.5469 202.61V201.61H62.0469V202.61V203.61H63.5469V202.61ZM62.0469 202.61H63.0469L63.0469 6.66016H62.0469H61.0469L61.0469 202.61H62.0469ZM62.0469 6.66016L61.0916 6.36439C60.3615 8.72247 59.3171 11.8698 57.8856 15.6976L58.8223 16.0479L59.7589 16.3981C61.2046 12.5323 62.2613 9.34859 63.0021 6.95592L62.0469 6.66016ZM58.8223 16.0479L57.8856 15.6976C54.4926 24.7707 48.9302 37.6731 40.2569 52.9827L41.127 53.4756L41.997 53.9685C50.7271 38.5588 56.3327 25.5599 59.7589 16.3981L58.8223 16.0479ZM41.127 53.4756L40.2569 52.9827C31.5951 68.2718 21.9592 77.3685 14.4971 82.6413L15.0742 83.458L15.6513 84.2747C23.3437 78.8392 33.1839 69.5248 41.997 53.9685L41.127 53.4756ZM15.0742 83.458L14.4971 82.6413C10.7657 85.278 7.57676 86.9595 5.32352 87.9808L5.73633 88.8916L6.14914 89.8024C8.50804 88.7333 11.8083 86.9902 15.6513 84.2747L15.0742 83.458ZM5.73633 88.8916L5.32352 87.9808C4.19741 88.4912 3.30481 88.8366 2.69508 89.0543L3.03125 89.9961L3.36742 90.9379C4.02629 90.7027 4.97018 90.3368 6.14913 89.8024L5.73633 88.8916ZM3.03125 89.9961L2.6951 89.0543C2.38901 89.1635 2.15392 89.2411 1.998 89.2902L2.29785 90.2441L2.5977 91.1981C2.77979 91.1409 3.03913 91.0551 3.3674 90.9379L3.03125 89.9961ZM2.29785 90.2441L1.99803 89.2901C1.92445 89.3133 1.86885 89.3294 1.82123 89.3434L2.10352 90.3027L2.38581 91.2621C2.42829 91.2496 2.50302 91.2279 2.59767 91.1981L2.29785 90.2441ZM2.10352 90.3027L1.82126 89.3434C1.80733 89.3475 1.79473 89.3513 1.78684 89.3536C1.78252 89.3549 1.77981 89.3557 1.77777 89.3563C1.77568 89.357 1.77578 89.3569 1.77717 89.3565L2.05078 90.3184L2.32439 91.2802C2.33818 91.2763 2.35221 91.2721 2.35987 91.2698C2.36959 91.2669 2.37713 91.2646 2.38577 91.2621L2.10352 90.3027ZM2.05078 90.3184L1.77719 89.3565C1.758 89.362 1.74176 89.3672 1.72945 89.3713C1.71754 89.3753 1.70807 89.3787 1.70486 89.3798C1.70405 89.3801 1.70328 89.3804 1.70313 89.3804C1.7028 89.3805 1.70308 89.3804 1.70349 89.3803C1.70419 89.38 1.70729 89.3789 1.71146 89.3775C1.71566 89.376 1.7226 89.3737 1.73129 89.3709C1.73994 89.3681 1.75209 89.3643 1.76678 89.3602L2.03613 90.3232L2.30549 91.2863C2.32109 91.2819 2.33418 91.2779 2.34382 91.2748C2.3535 91.2716 2.36146 91.2689 2.36673 91.2671C2.37196 91.2653 2.37617 91.2638 2.37801 91.2631C2.37898 91.2628 2.37984 91.2625 2.38011 91.2624C2.38055 91.2622 2.38038 91.2623 2.38018 91.2623C2.37941 91.2626 2.37253 91.2651 2.36338 91.2682C2.35382 91.2713 2.34049 91.2756 2.32437 91.2802L2.05078 90.3184ZM2.03613 90.3232L1.76071 89.3619C1.77762 89.3571 1.79272 89.3532 1.80543 89.3502C1.81815 89.3472 1.82926 89.3449 1.83819 89.3431C1.84712 89.3413 1.8546 89.3399 1.85994 89.339C1.86519 89.338 1.86927 89.3374 1.87086 89.3371C1.87164 89.337 1.87229 89.3369 1.87208 89.3369C1.87207 89.3369 1.87183 89.3369 1.87155 89.337C1.87126 89.337 1.87079 89.3371 1.87022 89.3372C1.86836 89.3375 1.86284 89.3384 1.85585 89.3397C1.8489 89.3409 1.83742 89.3431 1.82333 89.3461C1.81609 89.3476 1.80749 89.3495 1.79782 89.3518C1.78819 89.3542 1.77681 89.357 1.76409 89.3606L2.03125 90.3242L2.29841 91.2879C2.28583 91.2914 2.27461 91.2942 2.26512 91.2965C2.25561 91.2988 2.24717 91.3006 2.24011 91.3022C2.22635 91.3051 2.21523 91.3071 2.20865 91.3083C2.20203 91.3095 2.1969 91.3104 2.19545 91.3106C2.19463 91.3107 2.19394 91.3108 2.1942 91.3108C2.1942 91.3108 2.19506 91.3107 2.19606 91.3105C2.19808 91.3102 2.2026 91.3094 2.20829 91.3084C2.21408 91.3074 2.222 91.3059 2.23138 91.304C2.24077 91.3022 2.25232 91.2997 2.2655 91.2966C2.27866 91.2935 2.2942 91.2895 2.31156 91.2846L2.03613 90.3232ZM2.03125 90.3242V89.3242H2.03027V90.3242L2.03027 91.3242H2.03125L2.03125 90.3242ZM2.03027 90.3242L2.99415 90.0579L2.59473 88.6125L1.63086 88.8789L0.666988 89.1453L1.0664 90.5906L2.03027 90.3242ZM1.63086 88.8789L1.63086 89.8789H1.63184L1.63184 88.8789L1.63184 87.8789H1.63086L1.63086 88.8789ZM1.63184 88.8789L1.90114 89.842C1.91899 89.837 1.93424 89.8322 1.94618 89.8282C1.95822 89.8242 1.96853 89.8206 1.97659 89.8176C1.98471 89.8146 1.99162 89.812 1.99694 89.8099C2.00228 89.8078 2.00677 89.806 2.01006 89.8047C2.01602 89.8023 2.02089 89.8002 2.02123 89.8001C2.02297 89.7993 2.02055 89.8003 2.01848 89.8012C2.01324 89.8034 2.00096 89.8084 1.985 89.8144C1.96882 89.8204 1.94769 89.8277 1.92262 89.8351L1.63965 88.876L1.35668 87.9168C1.32978 87.9248 1.30695 87.9327 1.28918 87.9393C1.27163 87.9458 1.25789 87.9515 1.25133 87.9542C1.2486 87.9553 1.24556 87.9566 1.24671 87.9561C1.24685 87.9561 1.24792 87.9556 1.24933 87.955C1.25077 87.9544 1.25319 87.9534 1.25623 87.9522C1.25926 87.951 1.2635 87.9492 1.2686 87.9472C1.27368 87.9453 1.28037 87.9427 1.28827 87.9398C1.29611 87.9369 1.30621 87.9333 1.31805 87.9294C1.3298 87.9255 1.34486 87.9208 1.36253 87.9159L1.63184 88.8789ZM1.63965 88.876L1.91324 89.8378C1.91319 89.8378 1.91347 89.8378 1.91433 89.8375C1.91518 89.8373 1.91618 89.837 1.91765 89.8366C1.9204 89.8358 1.92435 89.8347 1.92879 89.8334C1.9378 89.8309 1.94949 89.8275 1.96292 89.8236L1.68066 88.8643L1.39841 87.9049C1.39361 87.9063 1.38887 87.9077 1.38397 87.9091C1.38144 87.9098 1.37906 87.9105 1.37621 87.9113C1.37388 87.9119 1.36984 87.9131 1.36605 87.9141L1.63965 88.876ZM1.68066 88.8643L1.96301 89.8236C1.99855 89.8131 2.06333 89.7942 2.14847 89.7675L1.84863 88.8135L1.54879 87.8595C1.48362 87.88 1.43568 87.8939 1.39832 87.9049L1.68066 88.8643ZM1.84863 88.8135L2.14848 89.7675C2.31312 89.7157 2.55343 89.6361 2.8625 89.5258L2.52637 88.584L2.19024 87.6422C1.90245 87.7449 1.68645 87.8162 1.54878 87.8595L1.84863 88.8135ZM2.52637 88.584L2.86253 89.5258C3.48461 89.3037 4.3906 88.9526 5.52999 88.4362L5.11719 87.5254L4.70438 86.6146C3.61748 87.1072 2.76276 87.4378 2.1902 87.6422L2.52637 88.584ZM5.11719 87.5254L5.53 88.4362C7.80965 87.403 11.0268 85.7064 14.7861 83.0501L14.209 82.2334L13.6319 81.4167C9.98435 83.9941 6.87855 85.6292 4.70437 86.6146L5.11719 87.5254ZM14.209 82.2334L14.7861 83.0501C22.3057 77.7366 31.9927 68.5852 40.6923 53.2293L39.8223 52.7363L38.9522 52.2434C30.4039 67.3322 20.9212 76.266 13.6319 81.4167L14.209 82.2334ZM39.8223 52.7363L40.6923 53.2293C49.38 37.8944 54.9523 24.967 58.3536 15.8718L57.417 15.5215L56.4803 15.1712C53.1122 24.1779 47.5831 37.0087 38.9522 52.2434L39.8223 52.7363ZM57.417 15.5215L58.3536 15.8718C60.0542 11.3244 61.2125 7.7344 61.9455 5.28031L60.9873 4.99414L60.0291 4.70797C59.3084 7.121 58.1643 10.6682 56.4803 15.1712L57.417 15.5215ZM60.9873 4.99414L61.9455 5.28031C62.3119 4.05337 62.5723 3.10982 62.7411 2.47293L61.7744 2.2168L60.8078 1.96067C60.6442 2.57798 60.3895 3.50149 60.0291 4.70797L60.9873 4.99414ZM61.7744 2.2168L62.7411 2.47292C62.7999 2.25077 62.8466 2.06291 62.8815 1.92527L61.9121 1.67969L60.9427 1.43411C60.9055 1.58099 60.863 1.75234 60.8078 1.96067L61.7744 2.2168ZM61.9121 1.67969L62.8847 1.44723C62.8877 1.45965 62.8893 1.46852 62.8887 1.46506C62.8886 1.4646 62.8885 1.46409 62.8883 1.46323C62.8882 1.4625 62.8879 1.46132 62.8877 1.46013C62.8873 1.4578 62.8865 1.45388 62.8856 1.44936C62.884 1.44144 62.8805 1.424 62.8754 1.40288L61.9033 1.6377L60.9313 1.87251C60.9292 1.86382 60.9276 1.85677 60.9266 1.85213C60.9256 1.84746 60.9249 1.84399 60.9246 1.84245C60.9243 1.84093 60.9241 1.84014 60.9243 1.84108C60.9244 1.84152 60.9245 1.842 60.9247 1.84296C60.9249 1.8438 60.9251 1.84501 60.9253 1.84631C60.9274 1.8569 60.9323 1.88184 60.9395 1.91214L61.9121 1.67969ZM61.9033 1.6377L62.8751 1.40185C62.8692 1.37729 62.8632 1.35644 62.8582 1.34037C62.8534 1.32474 62.8493 1.31246 62.8477 1.30783C62.8473 1.30665 62.8469 1.30566 62.8468 1.30533C62.8466 1.30475 62.8468 1.30518 62.8469 1.30556C62.8471 1.30626 62.8485 1.31033 62.8503 1.31571C62.8521 1.32114 62.8551 1.33051 62.8586 1.34231C62.8621 1.35403 62.8669 1.37108 62.8719 1.39191L61.8994 1.625L60.927 1.85809C60.9321 1.87967 60.9372 1.8975 60.9409 1.91004C60.9446 1.92267 60.9479 1.9329 60.95 1.93923C60.952 1.94551 60.9538 1.95052 60.9543 1.95219C60.9545 1.95271 60.9546 1.95314 60.9547 1.95341C60.9548 1.95355 60.9548 1.95367 60.9549 1.95375C60.9549 1.95387 60.9549 1.95387 60.9549 1.95392C60.955 1.95411 60.9548 1.95364 60.9546 1.95298C60.9537 1.95047 60.9503 1.94045 60.9463 1.92725C60.9421 1.91362 60.9368 1.89535 60.9315 1.87354L61.9033 1.6377ZM61.8994 1.625L62.8759 1.40929C62.9057 1.5443 62.8996 1.6531 62.897 1.69122C62.8964 1.70095 62.8957 1.70852 62.8955 1.71026C62.8951 1.71517 62.8958 1.70796 62.8961 1.7038C62.8968 1.69552 62.9005 1.65181 62.8991 1.59613L61.8994 1.62207L60.8998 1.64801C60.8983 1.59273 60.902 1.54944 60.9027 1.54162C60.903 1.53768 60.9036 1.53071 60.9032 1.53585C60.903 1.53783 60.9023 1.54564 60.9016 1.55561C60.899 1.59472 60.8929 1.70458 60.923 1.84071L61.8994 1.625ZM61.8994 1.62207L62.6065 0.914964L62.6055 0.913987L61.8984 1.62109L61.1913 2.3282L61.1923 2.32918L61.8994 1.62207ZM61.8984 1.62109L62.8712 1.38935C62.8715 1.3906 62.8738 1.40028 62.8765 1.41259C62.8792 1.42551 62.8831 1.44514 62.8868 1.46924C62.8943 1.51787 62.9018 1.59023 62.8968 1.67786C62.8856 1.87554 62.8168 2.05516 62.7134 2.20058C62.6236 2.32686 62.525 2.40319 62.4713 2.44074C62.4142 2.48065 62.3646 2.50628 62.3371 2.51971C62.2835 2.54588 62.2394 2.56122 62.2263 2.56577C62.2076 2.57226 62.1927 2.5768 62.1854 2.57898C62.1707 2.58338 62.1592 2.58641 62.1565 2.58712C62.1522 2.58827 62.1491 2.58906 62.1482 2.58929C62.1462 2.58979 62.1491 2.58907 62.1654 2.58511L61.9297 1.61328L61.694 0.641451C61.6791 0.645075 61.6662 0.648204 61.6564 0.650689C61.6536 0.651412 61.649 0.652583 61.6436 0.65402C61.6398 0.655028 61.6276 0.658258 61.6124 0.662805C61.6049 0.665055 61.5898 0.669658 61.571 0.67619C61.5577 0.680784 61.5136 0.69616 61.4599 0.722364C61.4462 0.729025 61.241 0.82 61.0835 1.04156C60.9801 1.18699 60.9113 1.36662 60.9 1.5643C60.8951 1.65194 60.9026 1.7243 60.91 1.77293C60.9137 1.79704 60.9177 1.81667 60.9204 1.82959C60.923 1.8419 60.9254 1.85159 60.9257 1.85284L61.8984 1.62109ZM61.9297 1.61328L62.8994 1.85735C62.9022 1.84648 62.9052 1.83509 62.9101 1.81688C62.9142 1.80138 62.921 1.77613 62.9274 1.75041L61.957 1.50879L60.9867 1.26717C60.9852 1.27313 60.9831 1.28111 60.9779 1.30042C60.9735 1.31703 60.9668 1.34205 60.9599 1.36922L61.9297 1.61328ZM61.957 1.50879L62.9274 1.75039C62.9481 1.6671 62.9637 1.60129 62.9721 1.56648L62 1.33203L61.0279 1.09758C61.0175 1.14057 61.005 1.19341 60.9867 1.26719L61.957 1.50879ZM62 1.33203L62.9721 1.56651C62.9738 1.55947 62.9754 1.55296 62.9772 1.54572C62.978 1.54239 62.9791 1.53811 62.9801 1.53416C62.981 1.53027 62.9823 1.52485 62.9837 1.51903L62.0107 1.28809L61.0378 1.05714C61.038 1.05599 61.0381 1.05597 61.0375 1.05815C61.037 1.06028 61.0364 1.06275 61.0354 1.06681C61.0335 1.07433 61.0309 1.08513 61.0279 1.09755L62 1.33203ZM62.0107 1.28809L62.9837 1.51892C62.9788 1.5397 62.9739 1.5572 62.97 1.57046C62.9661 1.58343 62.9628 1.59333 62.9617 1.59669C62.9614 1.59756 62.9612 1.59819 62.9612 1.59828C62.961 1.59891 62.9614 1.59765 62.9615 1.5974C62.9618 1.59641 62.9633 1.59203 62.965 1.58657C62.9668 1.5811 62.9699 1.57145 62.9734 1.5594C62.9752 1.55318 62.9773 1.54569 62.9796 1.53716C62.9819 1.52865 62.9845 1.5185 62.9872 1.507L62.0137 1.27832L61.0402 1.04964C61.0428 1.0384 61.0453 1.02853 61.0475 1.0203C61.0497 1.01205 61.0518 1.00485 61.0535 0.99893C61.0569 0.987475 61.0597 0.978468 61.0613 0.973671C61.0628 0.968887 61.064 0.965219 61.0641 0.964981C61.0642 0.964817 61.0642 0.964709 61.0642 0.964777C61.0642 0.964777 61.0641 0.965031 61.064 0.965248C61.0639 0.965732 61.0635 0.966767 61.0631 0.968041C61.0614 0.973038 61.0576 0.984723 61.0532 0.999597C61.0486 1.01477 61.0432 1.03431 61.0377 1.05725L62.0107 1.28809ZM62.0137 1.27832H63.0137V1.27637H62.0137H61.0137V1.27832H62.0137ZM62.0137 1.27637L61.782 2.24915C61.7907 2.25123 61.7977 2.25278 61.7983 2.2529C61.8001 2.2533 61.8017 2.25365 61.8018 2.25368C61.8027 2.25387 61.8029 2.2539 61.8034 2.25401C61.8043 2.25422 61.8072 2.25484 61.813 2.25616C61.8249 2.25883 61.8483 2.26413 61.8921 2.27417C61.9795 2.29424 62.1451 2.33256 62.4571 2.40544L62.6846 1.43164L62.912 0.457846C62.599 0.384754 62.4306 0.345777 62.3396 0.324876C62.2941 0.314429 62.2671 0.308317 62.2506 0.304624C62.2423 0.302749 62.2364 0.301447 62.232 0.300482C62.214 0.296535 62.2343 0.300941 62.2454 0.30358L62.0137 1.27637ZM62.6846 1.43164L62.9159 2.40451C63.5227 2.2602 63.5879 2.24554 63.5912 2.24475L63.3574 1.27246L63.1236 0.300171C63.1266 0.29945 63.1366 0.29711 63.1106 0.303146C63.0944 0.30693 63.0673 0.313266 63.0214 0.324059C62.9298 0.345639 62.7618 0.385373 62.4532 0.458775L62.6846 1.43164ZM63.3574 1.27246L62.3848 1.50469C62.3856 1.50806 62.3862 1.5107 62.3865 1.51176C62.3868 1.5131 62.3871 1.51418 62.3872 1.51483C62.3876 1.5161 62.3878 1.51714 62.3879 1.51755C62.388 1.51804 62.3882 1.51849 62.3882 1.51865C62.3883 1.51891 62.3883 1.51895 62.3883 1.519C62.3883 1.51915 62.3882 1.51852 62.3879 1.51757C62.3878 1.51706 62.3876 1.51617 62.3873 1.51503C62.387 1.51401 62.3866 1.51201 62.3859 1.50945L63.3584 1.27637L64.3309 1.04328C64.3302 1.04046 64.3296 1.03815 64.3293 1.03679C64.3289 1.03531 64.3286 1.03406 64.3284 1.03317C64.3279 1.03145 64.3276 1.02999 64.3274 1.02935C64.3273 1.02901 64.3272 1.02865 64.3272 1.02855C64.3272 1.02836 64.3272 1.02847 64.3272 1.02865C64.3273 1.02876 64.3275 1.02953 64.3277 1.03058C64.3279 1.03112 64.3281 1.03211 64.3284 1.03336C64.3287 1.03434 64.3293 1.03692 64.3301 1.04023L63.3574 1.27246Z" fill="#FCFCFC"/>
</svg>
