<svg width="59" height="606" viewBox="0 0 59 606" fill="none" xmlns="http://www.w3.org/2000/svg">
<path d="M30.1035 604.849C30.1037 604.848 30.1042 604.846 30.1045 604.845C30.1054 604.841 30.1064 604.834 30.1084 604.826C30.1126 604.809 30.1198 604.782 30.1289 604.746C30.1436 604.688 30.1654 604.606 30.1934 604.5H30.2031V604.462C30.2067 604.448 30.2101 604.434 30.2139 604.42C30.2915 604.131 30.412 603.699 30.582 603.135C30.9224 602.006 31.4611 600.346 32.251 598.241C33.8308 594.032 36.4158 588.039 40.4277 580.93C44.4032 573.885 48.8416 569.728 52.2617 567.337C53.973 566.14 55.4327 565.383 56.4561 564.928C56.9675 564.7 57.3702 564.547 57.6406 564.453C57.7757 564.406 57.8781 564.374 57.9443 564.354C57.9772 564.343 58.0018 564.336 58.0166 564.332C58.0235 564.33 58.0285 564.328 58.0312 564.327H58.0332L57.6455 562.878H57.6445C57.6437 562.878 57.6418 562.879 57.6406 562.879C57.6384 562.88 57.6351 562.881 57.6318 562.882C57.625 562.884 57.6158 562.886 57.6045 562.89C57.5811 562.896 57.5476 562.906 57.5059 562.919C57.4218 562.945 57.3009 562.983 57.1475 563.036C56.8397 563.143 56.3973 563.311 55.8457 563.557C54.7424 564.048 53.1985 564.851 51.4023 566.107C47.8067 568.622 43.2115 572.944 39.1211 580.192C35.0672 587.376 32.4509 593.44 30.8467 597.715C30.6099 598.346 30.3972 598.938 30.2031 599.489L30.2031 137H28.7031L28.7031 599.758C28.4872 599.135 28.2468 598.455 27.9736 597.725C26.3772 593.454 23.7657 587.394 19.6973 580.21C15.5933 572.963 11.0115 568.627 7.43262 566.097C5.64441 564.833 4.10808 564.021 3.01172 563.524C2.46373 563.276 2.0253 563.105 1.71973 562.996C1.56724 562.942 1.44773 562.902 1.36426 562.876C1.32258 562.863 1.28897 562.854 1.26562 562.847C1.25421 562.843 1.24514 562.84 1.23828 562.838C1.23484 562.837 1.23175 562.836 1.22949 562.835H1.22559L0.826172 564.28H0.827148C0.829796 564.281 0.835443 564.283 0.842773 564.285C0.857403 564.289 0.881363 564.297 0.914062 564.308C0.979824 564.328 1.08175 564.361 1.21582 564.409C1.48442 564.505 1.88421 564.66 2.39258 564.891C3.40976 565.352 4.86199 566.117 6.56641 567.321C9.97266 569.729 14.4009 573.903 18.3916 580.949C22.4178 588.059 24.9978 594.047 26.5693 598.251C27.355 600.353 27.8882 602.009 28.2246 603.136C28.3927 603.699 28.5124 604.13 28.5889 604.419C28.627 604.563 28.654 604.673 28.6719 604.744C28.6807 604.78 28.6873 604.806 28.6914 604.823C28.6934 604.831 28.6953 604.838 28.6963 604.842L28.6973 604.847C28.6974 604.847 28.7088 604.844 29.3994 604.683C30.047 604.837 30.0985 604.849 30.1025 604.85L30.1035 604.849Z" fill="#5E6C5B"/>
<path d="M30.1035 604.849L30.5897 604.965L30.5568 605.102L30.4571 605.202L30.1035 604.849ZM30.1045 604.845L29.6151 604.742L29.6167 604.735L29.6185 604.727L30.1045 604.845ZM30.1084 604.826L30.594 604.945L30.594 604.945L30.1084 604.826ZM30.1289 604.746L30.6136 604.869L30.6136 604.869L30.1289 604.746ZM30.1934 604.5L29.71 604.372L29.8085 604H30.1934V604.5ZM30.2031 604.5H30.7031V605H30.2031V604.5ZM30.2031 604.462H29.7031V604.396L29.72 604.333L30.2031 604.462ZM30.2139 604.42L29.731 604.29L29.731 604.29L30.2139 604.42ZM30.582 603.135L30.1033 602.99L30.1033 602.99L30.582 603.135ZM32.251 598.241L31.7829 598.066L31.7829 598.066L32.251 598.241ZM40.4277 580.93L39.9923 580.684L39.9923 580.684L40.4277 580.93ZM52.2617 567.337L51.9752 566.927L51.9752 566.927L52.2617 567.337ZM56.4561 564.928L56.2528 564.471L56.2528 564.471L56.4561 564.928ZM57.6406 564.453L57.476 563.981L57.476 563.981L57.6406 564.453ZM57.9443 564.354L57.798 563.875L57.798 563.875L57.9443 564.354ZM58.0166 564.332L58.1548 564.813L58.1541 564.813L58.0166 564.332ZM58.0312 564.327L57.8934 563.847L57.961 563.827H58.0312V564.327ZM58.0332 564.327L58.5162 564.198L58.6845 564.827H58.0332V564.327ZM57.6455 562.878V562.378H58.0293L58.1285 562.749L57.6455 562.878ZM57.6445 562.878L57.5147 562.395L57.5785 562.378H57.6445V562.878ZM57.6406 562.879L57.7716 563.361L57.7701 563.362L57.6406 562.879ZM57.6318 562.882L57.7649 563.364L57.7647 563.364L57.6318 562.882ZM57.6045 562.89L57.467 562.409L57.4671 562.409L57.6045 562.89ZM57.5059 562.919L57.3595 562.441L57.3596 562.441L57.5059 562.919ZM57.1475 563.036L56.9829 562.564L56.9829 562.564L57.1475 563.036ZM55.8457 563.557L55.6424 563.1L55.6424 563.1L55.8457 563.557ZM51.4023 566.107L51.1158 565.698L51.1158 565.698L51.4023 566.107ZM39.1211 580.192L38.6856 579.947L38.6856 579.947L39.1211 580.192ZM30.8467 597.715L30.3786 597.539L30.3786 597.539L30.8467 597.715ZM30.2031 599.489L30.6747 599.655L29.7031 599.489H30.2031ZM30.2031 137V136.5H30.7031V137H30.2031ZM28.7031 137H28.2031V136.5H28.7031V137ZM28.7031 599.758H29.2031L28.2307 599.922L28.7031 599.758ZM27.9736 597.725L28.442 597.55L28.442 597.55L27.9736 597.725ZM19.6973 580.21L20.1323 579.964L20.1323 579.964L19.6973 580.21ZM7.43262 566.097L7.72123 565.688L7.72124 565.688L7.43262 566.097ZM3.01172 563.524L3.21818 563.069L3.21818 563.069L3.01172 563.524ZM1.71973 562.996L1.88784 562.525L1.88785 562.525L1.71973 562.996ZM1.36426 562.876L1.51422 562.399L1.51425 562.399L1.36426 562.876ZM1.26562 562.847L1.12445 563.326L1.12362 563.326L1.26562 562.847ZM1.23828 562.838L1.37511 562.357L1.3761 562.357L1.23828 562.838ZM1.22949 562.835L1.22949 562.335H1.29811L1.36419 562.353L1.22949 562.835ZM1.22559 562.835L0.74365 562.702L0.84502 562.335H1.22559L1.22559 562.835ZM0.826172 564.28L0.826172 564.78H0.169255L0.344236 564.147L0.826172 564.28ZM0.827148 564.28L0.827148 563.78H0.896901L0.96399 563.799L0.827148 564.28ZM0.842773 564.285L0.701594 564.765L0.701583 564.765L0.842773 564.285ZM0.914062 564.308L1.06401 563.831L1.06407 563.831L0.914062 564.308ZM1.21582 564.409L1.38394 563.938L1.38395 563.938L1.21582 564.409ZM2.39258 564.891L2.59903 564.435L2.59904 564.435L2.39258 564.891ZM6.56641 567.321L6.85501 566.913L6.85502 566.913L6.56641 567.321ZM18.3916 580.949L18.8267 580.703L18.8267 580.703L18.3916 580.949ZM26.5693 598.251L27.0377 598.076L27.0377 598.076L26.5693 598.251ZM28.2246 603.136L28.7037 602.993L28.7037 602.993L28.2246 603.136ZM28.5889 604.419L29.0722 604.291L29.0722 604.291L28.5889 604.419ZM28.6719 604.744L28.1867 604.865L28.1867 604.865L28.6719 604.744ZM28.6914 604.823L28.2054 604.941L28.2053 604.94L28.6914 604.823ZM28.6963 604.842L29.1821 604.723L29.1845 604.734L29.1866 604.744L28.6963 604.842ZM28.6973 604.847L29.0125 605.235L28.3694 605.757L28.207 604.945L28.6973 604.847ZM29.3994 604.683L29.2856 604.196L29.4005 604.169L29.5152 604.196L29.3994 604.683ZM30.1025 604.85L30.4561 605.203L30.2546 605.405L29.9786 605.334L30.1025 604.85ZM30.1035 604.849L29.6173 604.732C29.6183 604.728 29.6192 604.724 29.6196 604.723C29.6201 604.721 29.6204 604.72 29.6206 604.719C29.6211 604.717 29.6206 604.719 29.6204 604.72C29.62 604.721 29.6193 604.724 29.6184 604.727C29.6176 604.731 29.6164 604.736 29.6151 604.742L30.1045 604.845L30.5938 604.947C30.5924 604.954 30.591 604.96 30.59 604.964C30.589 604.969 30.5881 604.972 30.5875 604.974C30.5871 604.976 30.5864 604.978 30.5868 604.977C30.5869 604.976 30.5872 604.975 30.5876 604.974C30.588 604.972 30.5888 604.969 30.5897 604.965L30.1035 604.849ZM30.1045 604.845L29.6185 604.727C29.6172 604.733 29.6163 604.737 29.6158 604.739C29.6152 604.742 29.6149 604.744 29.6147 604.744C29.6146 604.745 29.6145 604.745 29.6146 604.745C29.6147 604.744 29.615 604.743 29.6152 604.742C29.6164 604.736 29.6189 604.723 29.6228 604.707L30.1084 604.826L30.594 604.945C30.5959 604.938 30.5969 604.932 30.5969 604.932C30.5968 604.933 30.5968 604.933 30.5966 604.934C30.5964 604.935 30.5961 604.936 30.5957 604.938C30.5953 604.94 30.5947 604.943 30.5939 604.947C30.5932 604.951 30.592 604.956 30.5905 604.962L30.1045 604.845ZM30.1084 604.826L29.6228 604.707C29.6269 604.69 29.6383 604.647 29.6442 604.624L30.1289 604.746L30.6136 604.869C30.6014 604.917 30.5984 604.927 30.594 604.945L30.1084 604.826ZM30.1289 604.746L29.6442 604.624C29.6597 604.562 29.6823 604.477 29.71 604.372L30.1934 604.5L30.6767 604.628C30.6484 604.735 30.6275 604.814 30.6136 604.869L30.1289 604.746ZM30.1934 604.5V604H30.2031V604.5V605H30.1934V604.5ZM30.2031 604.5H29.7031V604.462H30.2031H30.7031V604.5H30.2031ZM30.2031 604.462L29.72 604.333C29.7206 604.331 29.7213 604.328 29.7234 604.32C29.725 604.313 29.7278 604.302 29.731 604.29L30.2139 604.42L30.6968 604.55C30.6961 604.552 30.6953 604.555 30.6935 604.562C30.692 604.568 30.6892 604.579 30.6863 604.591L30.2031 604.462ZM30.2139 604.42L29.731 604.29C29.8099 603.996 29.9318 603.559 30.1033 602.99L30.582 603.135L31.0607 603.279C30.8923 603.838 30.7732 604.265 30.6968 604.55L30.2139 604.42ZM30.582 603.135L30.1033 602.99C30.4467 601.851 30.9889 600.181 31.7829 598.066L32.251 598.241L32.7191 598.417C31.9334 600.51 31.3982 602.16 31.0607 603.279L30.582 603.135ZM32.251 598.241L31.7829 598.066C33.3708 593.834 35.9665 587.818 39.9923 580.684L40.4277 580.93L40.8632 581.175C36.8651 588.26 34.2907 594.229 32.7191 598.417L32.251 598.241ZM40.4277 580.93L39.9923 580.684C44.0061 573.572 48.4965 569.36 51.9752 566.927L52.2617 567.337L52.5482 567.747C49.1867 570.097 44.8003 574.199 40.8632 581.175L40.4277 580.93ZM52.2617 567.337L51.9752 566.927C53.7148 565.711 55.2027 564.938 56.2528 564.471L56.4561 564.928L56.6593 565.385C55.6626 565.828 54.2312 566.57 52.5482 567.747L52.2617 567.337ZM56.4561 564.928L56.2528 564.471C56.7773 564.238 57.1929 564.08 57.476 563.981L57.6406 564.453L57.8052 564.925C57.5474 565.015 57.1577 565.163 56.6593 565.385L56.4561 564.928ZM57.6406 564.453L57.476 563.981C57.6185 563.931 57.7271 563.897 57.798 563.875L57.9443 564.354L58.0907 564.832C58.029 564.85 57.9329 564.881 57.8052 564.925L57.6406 564.453ZM57.9443 564.354L57.798 563.875C57.8338 563.864 57.8613 563.856 57.8791 563.851L58.0166 564.332L58.1541 564.813C58.1423 564.816 58.1206 564.822 58.0906 564.832L57.9443 564.354ZM58.0166 564.332L57.8784 563.852C57.8676 563.855 57.8596 563.857 57.8579 563.858C57.8576 563.858 57.8574 563.858 57.8582 563.858C57.8586 563.858 57.8604 563.857 57.8624 563.856C57.8645 563.856 57.8682 563.854 57.8727 563.853C57.8771 563.851 57.8844 563.849 57.8934 563.847L58.0312 564.327L58.1691 564.808C58.1774 564.805 58.1839 564.803 58.1875 564.802C58.1913 564.801 58.1941 564.8 58.1951 564.799C58.1962 564.799 58.1969 564.799 58.1963 564.799C58.196 564.799 58.1946 564.8 58.1931 564.8C58.1865 564.803 58.1726 564.807 58.1548 564.813L58.0166 564.332ZM58.0312 564.327V563.827H58.0332V564.327V564.827H58.0312V564.327ZM58.0332 564.327L57.5502 564.456L57.1625 563.007L57.6455 562.878L58.1285 562.749L58.5162 564.198L58.0332 564.327ZM57.6455 562.878V563.378H57.6445V562.878V562.378H57.6455V562.878ZM57.6445 562.878L57.7744 563.361C57.7711 563.362 57.7685 563.362 57.767 563.363C57.7654 563.363 57.7641 563.363 57.7633 563.364C57.7625 563.364 57.7618 563.364 57.7614 563.364C57.7613 563.364 57.7611 563.364 57.761 563.364C57.7609 563.364 57.7608 563.364 57.7608 563.364C57.7605 563.364 57.7615 563.364 57.7627 563.364C57.7638 563.364 57.7671 563.363 57.7716 563.361L57.6406 562.879L57.5097 562.396C57.5147 562.395 57.5187 562.394 57.5205 562.394C57.5225 562.393 57.5241 562.393 57.5246 562.393C57.5256 562.392 57.5248 562.392 57.5241 562.393C57.5237 562.393 57.5226 562.393 57.5213 562.393C57.5201 562.394 57.5177 562.394 57.5147 562.395L57.6445 562.878ZM57.6406 562.879L57.7701 563.362C57.7787 563.36 57.7858 563.357 57.7906 563.356C57.7955 563.354 57.7994 563.353 57.8017 563.352C57.8041 563.351 57.8059 563.351 57.8065 563.351C57.8067 563.35 57.8075 563.35 57.8063 563.351C57.8052 563.351 57.8001 563.353 57.7938 563.355C57.7874 563.357 57.7773 563.36 57.7649 563.364L57.6318 562.882L57.4987 562.4C57.488 562.403 57.4796 562.406 57.4748 562.407C57.4722 562.408 57.4702 562.409 57.4689 562.409C57.4683 562.409 57.4678 562.41 57.4675 562.41C57.4673 562.41 57.4672 562.41 57.4671 562.41C57.467 562.41 57.4669 562.41 57.4669 562.41C57.4665 562.41 57.468 562.41 57.469 562.409C57.4703 562.409 57.4727 562.408 57.4758 562.407C57.4788 562.406 57.4834 562.404 57.4889 562.402C57.4943 562.401 57.502 562.398 57.5112 562.396L57.6406 562.879ZM57.6318 562.882L57.7647 563.364C57.7647 563.364 57.7646 563.364 57.7642 563.364C57.7639 563.364 57.7635 563.364 57.7629 563.364C57.7617 563.365 57.7601 563.365 57.758 563.366C57.7543 563.367 57.748 563.369 57.7418 563.37L57.6045 562.89L57.4671 562.409C57.4729 562.407 57.4893 562.402 57.499 562.4L57.6318 562.882ZM57.6045 562.89L57.742 563.37C57.7216 563.376 57.6911 563.385 57.6521 563.397L57.5059 562.919L57.3596 562.441C57.4041 562.427 57.4405 562.417 57.467 562.409L57.6045 562.89ZM57.5059 562.919L57.6522 563.397C57.5721 563.422 57.4576 563.458 57.312 563.508L57.1475 563.036L56.9829 562.564C57.1441 562.508 57.2715 562.468 57.3595 562.441L57.5059 562.919ZM57.1475 563.036L57.312 563.508C57.0166 563.611 56.5872 563.774 56.049 564.013L55.8457 563.557L55.6424 563.1C56.2075 562.848 56.6628 562.676 56.9829 562.564L57.1475 563.036ZM55.8457 563.557L56.049 564.013C54.9725 564.492 53.4568 565.281 51.6889 566.517L51.4023 566.107L51.1158 565.698C52.9401 564.422 54.5123 563.603 55.6424 563.1L55.8457 563.557ZM51.4023 566.107L51.6889 566.517C48.1517 568.991 43.6086 573.258 39.5565 580.438L39.1211 580.192L38.6856 579.947C42.8144 572.63 47.4616 568.253 51.1158 565.698L51.4023 566.107ZM39.1211 580.192L39.5565 580.438C35.5166 587.597 32.9108 593.638 31.3148 597.891L30.8467 597.715L30.3786 597.539C31.9909 593.243 34.6179 587.155 38.6856 579.947L39.1211 580.192ZM30.8467 597.715L31.3148 597.891C31.0796 598.517 30.8681 599.107 30.6747 599.655L30.2031 599.489L29.7315 599.323C29.9263 598.77 30.1402 598.174 30.3786 597.539L30.8467 597.715ZM30.2031 599.489H29.7031L29.7031 137H30.2031H30.7031L30.7031 599.489H30.2031ZM30.2031 137V137.5H28.7031V137V136.5H30.2031V137ZM28.7031 137H29.2031L29.2031 599.758H28.7031H28.2031L28.2031 137H28.7031ZM28.7031 599.758L28.2307 599.922C28.0155 599.301 27.7766 598.625 27.5053 597.9L27.9736 597.725L28.442 597.55C28.7171 598.285 28.9589 598.969 29.1755 599.594L28.7031 599.758ZM27.9736 597.725L27.5053 597.9C25.9171 593.651 23.3165 587.615 19.2622 580.456L19.6973 580.21L20.1323 579.964C24.215 587.173 26.8373 593.257 28.442 597.55L27.9736 597.725ZM19.6973 580.21L19.2622 580.456C15.1961 573.277 10.6654 568.994 7.144 566.505L7.43262 566.097L7.72124 565.688C11.3577 568.259 15.9906 572.65 20.1323 579.964L19.6973 580.21ZM7.43262 566.097L7.14401 566.505C5.38376 565.261 3.87528 564.465 2.80525 563.98L3.01172 563.524L3.21818 563.069C4.34088 563.578 5.90507 564.405 7.72123 565.688L7.43262 566.097ZM3.01172 563.524L2.80526 563.98C2.27003 563.737 1.8444 563.572 1.5516 563.467L1.71973 562.996L1.88785 562.525C2.2062 562.639 2.65742 562.815 3.21818 563.069L3.01172 563.524ZM1.71973 562.996L1.55161 563.467C1.40496 563.415 1.29149 563.377 1.21426 563.353L1.36426 562.876L1.51425 562.399C1.60397 562.427 1.72952 562.469 1.88784 562.525L1.71973 562.996ZM1.36426 562.876L1.21429 563.353C1.1783 563.342 1.15653 563.336 1.12445 563.326L1.26562 562.847L1.4068 562.367C1.42141 562.371 1.46686 562.384 1.51422 562.399L1.36426 562.876ZM1.26562 562.847L1.12362 563.326C1.10862 563.322 1.09619 563.317 1.09105 563.316C1.08755 563.315 1.08797 563.315 1.08839 563.315C1.08902 563.315 1.09372 563.317 1.10046 563.319L1.23828 562.838L1.3761 562.357C1.38627 562.36 1.39467 562.363 1.3993 562.364C1.40369 562.366 1.40839 562.367 1.40944 562.368C1.41339 562.369 1.41121 562.368 1.40763 562.367L1.26562 562.847ZM1.23828 562.838L1.10146 563.319C1.09126 563.316 1.08279 563.313 1.07683 563.311C1.07105 563.309 1.06639 563.308 1.06507 563.307C1.06487 563.307 1.06469 563.307 1.06457 563.307C1.06438 563.307 1.06443 563.307 1.06432 563.307C1.0642 563.307 1.06434 563.307 1.06456 563.307C1.06495 563.307 1.06643 563.308 1.06844 563.308C1.07045 563.309 1.07374 563.31 1.07786 563.311C1.08196 563.313 1.08776 563.315 1.0948 563.316L1.22949 562.835L1.36419 562.353C1.37179 562.356 1.37818 562.358 1.38289 562.359C1.38763 562.361 1.39156 562.362 1.39423 562.363C1.3969 562.364 1.39906 562.365 1.40016 562.365C1.4008 562.365 1.40246 562.366 1.40182 562.365C1.40182 562.365 1.40102 562.365 1.39989 562.365C1.39872 562.364 1.39694 562.364 1.39472 562.363C1.39038 562.362 1.38359 562.359 1.37511 562.357L1.23828 562.838ZM1.22949 562.835V563.335H1.22559V562.835L1.22559 562.335H1.22949L1.22949 562.835ZM1.22559 562.835L1.70752 562.968L1.30811 564.413L0.826172 564.28L0.344236 564.147L0.74365 562.702L1.22559 562.835ZM0.826172 564.28L0.826172 563.78H0.827148L0.827148 564.28L0.827148 564.78H0.826172L0.826172 564.28ZM0.827148 564.28L0.96399 563.799C0.969087 563.801 0.973239 563.802 0.975681 563.803C0.978266 563.804 0.980436 563.804 0.981765 563.805C0.983121 563.805 0.984343 563.806 0.984999 563.806C0.985891 563.806 0.986103 563.806 0.986555 563.806C0.987807 563.807 0.986357 563.806 0.983964 563.806L0.842773 564.285L0.701583 564.765C0.691859 564.762 0.68392 564.759 0.679855 564.758C0.678977 564.758 0.677932 564.757 0.677647 564.757C0.677125 564.757 0.677247 564.757 0.677587 564.757C0.677899 564.757 0.679136 564.758 0.680877 564.758C0.682475 564.759 0.685872 564.76 0.690306 564.761L0.827148 564.28ZM0.842773 564.285L0.983953 563.806C0.997467 563.809 1.01241 563.814 1.02338 563.818C1.03622 563.822 1.04885 563.826 1.06401 563.831L0.914062 564.308L0.764117 564.785C0.746579 564.779 0.730875 564.774 0.719904 564.771C0.714122 564.769 0.709804 564.767 0.706352 564.766C0.702767 564.765 0.701475 564.765 0.701594 564.765L0.842773 564.285ZM0.914062 564.308L1.06407 563.831C1.13454 563.853 1.24266 563.888 1.38394 563.938L1.21582 564.409L1.0477 564.88C0.920832 564.835 0.825103 564.804 0.764056 564.785L0.914062 564.308ZM1.21582 564.409L1.38395 563.938C1.66517 564.039 2.07776 564.199 2.59903 564.435L2.39258 564.891L2.18612 565.346C1.69066 565.121 1.30367 564.971 1.04769 564.88L1.21582 564.409ZM2.39258 564.891L2.59904 564.435C3.64257 564.908 5.12264 565.688 6.85501 566.913L6.56641 567.321L6.2778 567.73C4.60133 566.545 3.17696 565.795 2.18611 565.346L2.39258 564.891ZM6.56641 567.321L6.85502 566.913C10.3188 569.361 14.7982 573.59 18.8267 580.703L18.3916 580.949L17.9565 581.196C14.0037 574.216 9.62648 570.097 6.27779 567.73L6.56641 567.321ZM18.3916 580.949L18.8267 580.703C22.8671 587.837 25.4578 593.85 27.0377 598.076L26.5693 598.251L26.101 598.426C24.5377 594.244 21.9686 588.28 17.9565 581.196L18.3916 580.949ZM26.5693 598.251L27.0377 598.076C27.8275 600.189 28.3643 601.856 28.7037 602.993L28.2246 603.136L27.7455 603.279C27.4121 602.162 26.8824 600.516 26.101 598.426L26.5693 598.251ZM28.2246 603.136L28.7037 602.993C28.8732 603.56 28.9943 603.997 29.0722 604.291L28.5889 604.419L28.1055 604.547C28.0305 604.264 27.9122 603.837 27.7455 603.279L28.2246 603.136ZM28.5889 604.419L29.0722 604.291C29.1115 604.439 29.1393 604.552 29.1571 604.623L28.6719 604.744L28.1867 604.865C28.1688 604.793 28.1426 604.687 28.1055 604.547L28.5889 604.419ZM28.6719 604.744L29.1571 604.623C29.1658 604.658 29.1728 604.687 29.1775 604.706L28.6914 604.823L28.2053 604.94C28.2017 604.925 28.1956 604.901 28.1867 604.865L28.6719 604.744ZM28.6914 604.823L29.1774 604.706C29.1767 604.703 29.1762 604.701 29.1766 604.702C29.1767 604.703 29.1768 604.703 29.1771 604.704C29.1773 604.705 29.1776 604.706 29.178 604.708C29.1784 604.709 29.1789 604.711 29.1796 604.714C29.1802 604.716 29.1811 604.719 29.1821 604.723L28.6963 604.842L28.2105 604.96C28.2112 604.963 28.2119 604.966 28.2122 604.967C28.2125 604.968 28.2128 604.969 28.2128 604.969C28.2129 604.969 28.2128 604.969 28.2127 604.969C28.2125 604.968 28.2122 604.967 28.2119 604.966C28.2106 604.961 28.2081 604.952 28.2054 604.941L28.6914 604.823ZM28.6963 604.842L29.1866 604.744L29.1876 604.749L28.6973 604.847L28.207 604.945L28.206 604.94L28.6963 604.842ZM28.6973 604.847L28.382 604.459C28.4276 604.422 28.4691 604.401 28.4844 604.394C28.5038 604.385 28.5196 604.379 28.5276 604.376C28.5437 604.371 28.5565 604.367 28.56 604.366C28.5688 604.363 28.5759 604.362 28.5766 604.361C28.5801 604.361 28.5833 604.36 28.5839 604.36C28.5865 604.359 28.5904 604.358 28.5961 604.357C28.6081 604.354 28.6313 604.349 28.6758 604.338C28.7649 604.317 28.9404 604.276 29.2856 604.196L29.3994 604.683L29.5132 605.169C29.1679 605.25 28.9924 605.291 28.9031 605.312C28.8584 605.322 28.8355 605.328 28.8237 605.331C28.8176 605.332 28.8152 605.333 28.8144 605.333C28.8133 605.333 28.8156 605.332 28.8186 605.332C28.819 605.332 28.826 605.33 28.8347 605.327C28.8381 605.326 28.8509 605.323 28.8669 605.317C28.8749 605.314 28.8908 605.308 28.9101 605.299C28.9254 605.292 28.967 605.272 29.0125 605.235L28.6973 604.847ZM29.3994 604.683L29.5152 604.196C30.156 604.349 30.217 604.363 30.2265 604.365L30.1025 604.85L29.9786 605.334C29.98 605.334 29.938 605.325 29.2837 605.169L29.3994 604.683ZM30.1025 604.85L29.749 604.496L29.75 604.495L30.1035 604.849L30.4571 605.202L30.4561 605.203L30.1025 604.85Z" fill="#274346"/>
<path d="M17.616 10.144C17.616 8.90667 17.744 7.808 18 6.848C18.2773 5.888 18.6507 5.056 19.12 4.352C19.6107 3.648 20.144 3.072 20.72 2.624C21.3173 2.176 21.9467 1.84533 22.608 1.632L23.504 4.224C22.5653 4.544 21.744 5.184 21.04 6.144C20.3573 7.12533 20.016 8.32 20.016 9.728C20.016 11.456 20.3573 12.8107 21.04 13.792C21.7227 14.7733 22.6293 15.264 23.76 15.264C24.8053 15.264 25.648 14.8267 26.288 13.952C26.9493 13.0773 27.4613 11.9253 27.824 10.496L28.464 8.032C28.72 7.02933 29.0933 6.10133 29.584 5.248C30.096 4.416 30.736 3.744 31.504 3.232C32.2933 2.74133 33.232 2.496 34.32 2.496C36.3467 2.496 37.9253 3.14667 39.056 4.448C40.208 5.77067 40.784 7.66933 40.784 10.144C40.784 11.616 40.5387 12.8853 40.048 13.952C39.5787 15.0187 38.9707 15.8827 38.224 16.544C37.4987 17.2267 36.7093 17.7067 35.856 17.984L34.96 15.424C36.0267 15.0187 36.8587 14.336 37.456 13.376C38.0747 12.416 38.384 11.2533 38.384 9.888C38.384 8.45867 38.032 7.31734 37.328 6.464C36.6453 5.632 35.7067 5.216 34.512 5.216C33.488 5.216 32.6987 5.54667 32.144 6.208C31.6107 6.86933 31.216 7.73333 30.96 8.8L30.352 11.264C29.84 13.44 28.9867 15.104 27.792 16.256C26.6187 17.4293 25.3493 18.016 23.984 18.016C22.8107 18.016 21.7333 17.7173 20.752 17.12C19.792 16.5227 19.024 15.6373 18.448 14.464C17.8933 13.312 17.616 11.872 17.616 10.144ZM17.616 30.6323C17.616 29.0536 17.968 27.6563 18.672 26.4403C19.3973 25.2243 20.3893 24.2749 21.648 23.5923C22.9067 22.9096 24.3573 22.5683 26 22.5683C27.6427 22.5683 29.0933 22.8989 30.352 23.5603C31.6107 24.2429 32.592 25.1923 33.296 26.4083C34.0213 27.6243 34.384 29.0109 34.384 30.5683C34.384 32.1043 34.032 33.4803 33.328 34.6963C32.624 35.9123 31.632 36.8403 30.352 37.4803L29.296 35.1443C30.1493 34.7176 30.8107 34.0989 31.28 33.2883C31.7707 32.4776 32.016 31.5496 32.016 30.5043C32.016 29.4589 31.76 28.5309 31.248 27.7203C30.736 26.9309 30.0213 26.3016 29.104 25.8323C28.208 25.3843 27.1733 25.1603 26 25.1603C24.8267 25.1603 23.7813 25.3843 22.864 25.8323C21.968 26.3016 21.264 26.9416 20.752 27.7523C20.24 28.5843 19.984 29.5229 19.984 30.5683C19.984 31.6136 20.2507 32.5416 20.784 33.3523C21.3173 34.1843 22.064 34.8136 23.024 35.2403L21.968 37.5763C20.6027 36.9363 19.536 36.0083 18.768 34.7923C18 33.5763 17.616 32.1896 17.616 30.6323ZM26.672 43.8168C28.4 43.8168 29.7973 44.1474 30.864 44.8088C31.952 45.4701 32.752 46.3128 33.264 47.3368C33.7973 48.3821 34.064 49.4808 34.064 50.6328L31.664 50.6328C31.664 49.6941 31.504 48.7874 31.184 47.9128C30.8853 47.0594 30.384 46.3554 29.68 45.8008C28.976 45.2461 28.016 44.9688 26.8 44.9688L26.672 43.8168ZM18 42.4088L34 42.4088L34 44.9688L18 44.9688L18 42.4088ZM17.616 61.8933C17.616 60.3359 17.968 58.9493 18.672 57.7333C19.3973 56.5386 20.3893 55.5999 21.648 54.9173C22.9067 54.2346 24.3573 53.8933 26 53.8933C27.6427 53.8933 29.0933 54.2239 30.352 54.8853C31.6107 55.5679 32.592 56.5066 33.296 57.7013C34.0213 58.9173 34.384 60.2933 34.384 61.8293C34.384 63.4079 34.0213 64.7946 33.296 65.9893C32.592 67.2053 31.6107 68.1439 30.352 68.8053C29.0933 69.4879 27.6427 69.8293 26 69.8293C24.3573 69.8293 22.9067 69.4879 21.648 68.8053C20.3893 68.1439 19.3973 67.2159 18.672 66.0213C17.968 64.8266 17.616 63.4506 17.616 61.8933ZM19.984 61.8933C19.984 62.9599 20.24 63.8879 20.752 64.6773C21.264 65.4666 21.968 66.0853 22.864 66.5333C23.76 67.0026 24.8053 67.2373 26 67.2373C27.1947 67.2373 28.24 67.0026 29.136 66.5333C30.032 66.0853 30.736 65.4559 31.248 64.6453C31.76 63.8346 32.016 62.8959 32.016 61.8293C32.016 60.7839 31.76 59.8559 31.248 59.0453C30.736 58.2559 30.032 57.6266 29.136 57.1573C28.24 56.7093 27.1947 56.4853 26 56.4853C24.8267 56.4853 23.7813 56.7093 22.864 57.1573C21.968 57.6266 21.264 58.2666 20.752 59.0773C20.24 59.9093 19.984 60.8479 19.984 61.8933ZM18 74.9838L40.4 74.9838L40.4 77.5438L18 77.5438L18 74.9838ZM18 83.615L40.4 83.615L40.4 86.175L18 86.175L18 83.615Z" fill="#5E6C5B"/>
</svg>
