<svg width="50" height="30" viewBox="0 0 50 30" fill="none" xmlns="http://www.w3.org/2000/svg">
<path d="M0.327148 15.7432C0.473899 15.7828 0.688644 15.8422 0.96582 15.9258C1.54589 16.1007 2.40159 16.3782 3.48828 16.7861C5.66223 17.6023 8.76302 18.9399 12.4434 21.0176C16.0587 23.0586 18.1819 25.3308 19.3965 27.0684C20.0047 27.9384 20.3869 28.6781 20.6152 29.1914C20.7294 29.448 20.8056 29.6485 20.8516 29.7803C20.8744 29.8459 20.8902 29.8947 20.8994 29.9248C20.9039 29.9396 20.9066 29.9505 20.9082 29.9561L20.9092 29.958L22.3584 29.5713L22.3564 29.5674L22.3496 29.5439C22.3455 29.5296 22.3403 29.5093 22.333 29.4854C22.3183 29.4373 22.2969 29.3703 22.2676 29.2861C22.2087 29.1172 22.1181 28.8783 21.9863 28.582C21.7224 27.9888 21.2935 27.164 20.626 26.209C19.2886 24.2958 16.9999 21.868 13.1807 19.7119C9.92068 17.8715 7.09957 16.5973 4.94727 15.7432L49.6436 15.7432V14.2432L4.83789 14.2432C7.0013 13.3919 9.85886 12.1064 13.1719 10.2295C16.9895 8.06663 19.2846 5.64596 20.6299 3.74219C21.3015 2.79172 21.7348 1.97324 22.002 1.38379C22.1355 1.08921 22.2282 0.851489 22.2881 0.683594C22.318 0.599812 22.3395 0.532039 22.3545 0.484375C22.3619 0.460933 22.3679 0.441808 22.3721 0.427734C22.374 0.421134 22.3757 0.415591 22.377 0.411133C22.3776 0.409011 22.3785 0.405897 22.3789 0.404297L22.3799 0.401367L20.9346 0.00195312L20.9336 0.000976562L20.9346 0.000976562L20.9336 0C20.9334 0.000596016 20.9333 0.00249488 20.9326 0.00488281C20.931 0.0105074 20.9285 0.0214053 20.9238 0.0361328C20.9144 0.0661247 20.8983 0.114546 20.875 0.179687C20.8283 0.310589 20.7513 0.509676 20.6357 0.764648C20.4044 1.27493 20.0176 2.01036 19.4053 2.87695C18.1821 4.608 16.0499 6.87545 12.4326 8.9248C8.75268 11.0096 5.65519 12.3444 3.48437 13.1562C2.3991 13.5621 1.54462 13.8369 0.96582 14.0098C0.676652 14.0961 0.456097 14.1575 0.30957 14.1963C0.236662 14.2156 0.18204 14.2294 0.146484 14.2383C0.139312 14.2401 0.132592 14.2418 0.126953 14.2432H0L0 15.7432H0.327148Z" fill="black"/>
</svg>
