<svg width="50" height="31" viewBox="0 0 50 31" fill="none" xmlns="http://www.w3.org/2000/svg">
<path d="M49.3174 16.6865C49.1706 16.7262 48.9559 16.7855 48.6787 16.8691C48.0986 17.0441 47.2429 17.3215 46.1562 17.7295C43.9823 18.5457 40.8815 19.8833 37.2012 21.9609C33.5858 24.002 31.4626 26.2742 30.248 28.0117C29.6399 28.8818 29.2576 29.6214 29.0293 30.1348C28.9152 30.3914 28.8389 30.5918 28.793 30.7236C28.7701 30.7892 28.7543 30.8381 28.7451 30.8682C28.7406 30.883 28.7379 30.8938 28.7363 30.8994L28.7354 30.9014L27.2861 30.5146L27.2881 30.5107L27.2949 30.4873C27.299 30.473 27.3042 30.4527 27.3115 30.4287C27.3262 30.3807 27.3476 30.3137 27.377 30.2295C27.4358 30.0605 27.5264 29.8217 27.6582 29.5254C27.9221 28.9321 28.351 28.1074 29.0186 27.1523C30.3559 25.2392 32.6447 22.8114 36.4639 20.6553C39.7239 18.8149 42.545 17.5406 44.6973 16.6865L0.000976562 16.6865V15.1865L44.8066 15.1865C42.6432 14.3352 39.7857 13.0498 36.4727 11.1729C32.6551 9.00999 30.3599 6.58932 29.0146 4.68555C28.3431 3.73508 27.9097 2.9166 27.6426 2.32715C27.5091 2.03257 27.4164 1.79485 27.3564 1.62695C27.3265 1.54317 27.305 1.4754 27.29 1.42773C27.2827 1.40429 27.2766 1.38517 27.2725 1.37109C27.2705 1.36449 27.2688 1.35895 27.2676 1.35449C27.267 1.35237 27.2661 1.34926 27.2656 1.34766L27.2646 1.34473L28.71 0.945312L28.7109 0.944336H28.71L28.7109 0.943359C28.7111 0.943955 28.7112 0.945854 28.7119 0.948242C28.7136 0.953867 28.7161 0.964765 28.7207 0.979492C28.7301 1.00948 28.7463 1.05791 28.7695 1.12305C28.8163 1.25395 28.8932 1.45304 29.0088 1.70801C29.2401 2.21829 29.6269 2.95372 30.2393 3.82031C31.4625 5.55136 33.5946 7.81881 37.2119 9.86816C40.8919 11.953 43.9893 13.2878 46.1602 14.0996C47.2454 14.5055 48.0999 14.7803 48.6787 14.9531C48.9679 15.0395 49.1884 15.1008 49.335 15.1396C49.4079 15.159 49.4625 15.1728 49.498 15.1816C49.5052 15.1834 49.5119 15.1852 49.5176 15.1865H49.6445V16.6865H49.3174Z" fill="black"/>
</svg>
