<svg width="64" height="106" viewBox="0 0 64 106" fill="none" xmlns="http://www.w3.org/2000/svg">
<path d="M34.5 1.69531C34.512 1.74209 34.5256 1.79538 34.541 1.85449C34.6183 2.15014 34.7404 2.59973 34.915 3.19141C35.2647 4.37605 35.8244 6.13172 36.6533 8.36719C38.3113 12.8388 41.0463 19.231 45.334 26.8262C49.5013 34.2079 54.1233 38.5133 57.6221 40.959C59.3755 42.1846 60.8571 42.9504 61.873 43.4023C62.381 43.6283 62.773 43.776 63.0234 43.8633C63.1484 43.9068 63.2385 43.9354 63.29 43.9512C63.3135 43.9584 63.3297 43.9627 63.3369 43.9648H63.335L63.3281 43.9639C63.3241 43.9741 63.2822 44.1279 62.6826 46.3779C62.0751 48.6578 62.0394 48.7861 62.0361 48.793C62.0356 48.7928 62.0332 48.7923 62.0322 48.792C62.0303 48.7915 62.0276 48.7916 62.0254 48.791C62.0206 48.7897 62.0148 48.7878 62.0088 48.7861C61.9964 48.7827 61.9813 48.7784 61.9639 48.7734C61.9286 48.7634 61.8826 48.7494 61.8271 48.7324C61.7161 48.6984 61.565 48.6501 61.3779 48.585C61.0034 48.4544 60.4826 48.2567 59.8418 47.9717C58.5592 47.4011 56.7942 46.4817 54.7568 45.0576C50.6725 42.2025 45.5305 37.3447 40.9795 29.2832C38.2579 24.4622 36.1363 20.0983 34.5 16.3613V105.5H29.5V16.2012C27.8459 19.9682 25.6935 24.3822 22.9258 29.2676C18.3619 37.3232 13.2368 42.1925 9.17383 45.0635C7.14704 46.4956 5.39421 47.4245 4.12012 48.002C3.48312 48.2907 2.96479 48.4912 2.59277 48.624C2.40689 48.6904 2.25675 48.7398 2.14648 48.7744C2.09172 48.7916 2.04664 48.8061 2.01172 48.8164C1.9944 48.8215 1.97905 48.8256 1.9668 48.8291C1.96077 48.8308 1.95498 48.8326 1.9502 48.834C1.94787 48.8346 1.94538 48.8354 1.94336 48.8359C1.94231 48.8362 1.93997 48.8368 1.93945 48.8369C1.93697 48.8331 1.9097 48.7345 1.27539 46.4268C0.64832 44.1453 0.613373 44.0229 0.610352 44.0166C0.61869 44.014 0.631057 44.01 0.647461 44.0049C0.698521 43.9888 0.78874 43.9594 0.913086 43.915C1.16182 43.8262 1.55088 43.677 2.05566 43.4482C3.06596 42.9903 4.54109 42.2156 6.28906 40.9805C9.77615 38.5164 14.3897 34.1906 18.5752 26.8027C22.8789 19.2061 25.6301 12.8179 27.3008 8.35059C28.136 6.11723 28.7004 4.36371 29.0537 3.18066C29.2303 2.58928 29.3544 2.14 29.4326 1.84473C29.4611 1.73735 29.4832 1.65018 29.5 1.58398V0.5H34.5V1.69531Z" fill="black"/>
</svg>
