<svg width="63" height="105" viewBox="0 0 63 105" fill="none" xmlns="http://www.w3.org/2000/svg">
<path d="M33.8896 1.19531C33.9016 1.24209 33.9152 1.29538 33.9306 1.35449C34.0079 1.65014 34.13 2.09973 34.3046 2.69141C34.6543 3.87605 35.214 5.63172 36.0429 7.86719C37.7009 12.3388 40.4359 18.731 44.7236 26.3262C48.8909 33.7079 53.5129 38.0133 57.0117 40.459C58.7651 41.6846 60.2467 42.4504 61.2626 42.9023C61.7706 43.1283 62.1626 43.276 62.413 43.3633C62.538 43.4068 62.6281 43.4354 62.6796 43.4512C62.7031 43.4584 62.7193 43.4627 62.7265 43.4648H62.7246L62.7177 43.4639C62.7137 43.4741 62.6718 43.6279 62.0722 45.8779C61.4647 48.1578 61.429 48.2861 61.4257 48.293L61.4218 48.292C61.4218 48.292 61.4172 48.2916 61.415 48.291C61.4102 48.2897 61.4044 48.2878 61.3984 48.2861C61.386 48.2827 61.3709 48.2784 61.3535 48.2734C61.3182 48.2634 61.2722 48.2494 61.2167 48.2324C61.1057 48.1984 60.9546 48.1501 60.7675 48.085C60.393 47.9544 59.8722 47.7567 59.2314 47.4717C57.9488 46.9011 56.1839 45.9817 54.1465 44.5576C50.0622 41.7025 44.9201 36.8447 40.3691 28.7832C37.6475 23.9622 35.5259 19.5983 33.8896 15.8613V105H28.8896V15.7012C27.2355 19.4682 25.0831 23.8822 22.3154 28.7676C17.7515 36.8232 12.6264 41.6925 8.56348 44.5635C6.53669 45.9956 4.78386 46.9245 3.50977 47.502C2.87277 47.7907 2.35444 47.9912 1.98242 48.124C1.79654 48.1904 1.6464 48.2398 1.53613 48.2744C1.48137 48.2916 1.43629 48.3061 1.40137 48.3164C1.38405 48.3215 1.3687 48.3256 1.35645 48.3291C1.35042 48.3308 1.34463 48.3326 1.33985 48.334C1.33752 48.3346 1.33503 48.3354 1.33301 48.3359L1.3291 48.3369C1.32662 48.3331 1.29935 48.2345 0.665038 45.9268C0.037968 43.6453 0.003021 43.5229 0 43.5166C0.008338 43.514 0.020705 43.51 0.037109 43.5049C0.088169 43.4888 0.178388 43.4594 0.302734 43.415C0.551468 43.3262 0.940528 43.177 1.44531 42.9482C2.45561 42.4903 3.93074 41.7156 5.67871 40.4805C9.1658 38.0164 13.7793 33.6906 17.9648 26.3027C22.2685 18.7061 25.0197 12.3179 26.6904 7.85059C27.5256 5.61723 28.09 3.86371 28.4433 2.68066C28.6199 2.08928 28.744 1.64 28.8222 1.34473C28.8507 1.23735 28.8728 1.15018 28.8896 1.08398V0H33.8896V1.19531Z" fill="white"/>
</svg>
