<svg width="27" height="17" viewBox="0 0 27 17" fill="none" xmlns="http://www.w3.org/2000/svg">
<path d="M26.0186 9.16211C25.9438 9.18234 25.8378 9.21133 25.7031 9.25195C25.4039 9.34219 24.9616 9.48523 24.3994 9.69629C23.2743 10.1187 21.6673 10.8118 19.7598 11.8887C17.8956 12.9411 16.8039 14.1108 16.1816 15.001C15.87 15.4468 15.6747 15.8251 15.5586 16.0859C15.5006 16.2163 15.4624 16.318 15.4395 16.3838C15.4281 16.4164 15.4204 16.4408 15.416 16.4551C15.414 16.4617 15.4128 16.4664 15.4121 16.4688L14.4463 16.21L14.4453 16.209L14.4473 16.208C14.4475 16.2071 14.4469 16.2053 14.4473 16.2041L14.46 16.1621C14.468 16.1358 14.4804 16.0989 14.4961 16.0537C14.5277 15.9632 14.5749 15.8362 14.6445 15.6797C14.7843 15.3655 15.0111 14.9312 15.3623 14.4287C16.0664 13.4214 17.2685 12.1477 19.2686 11.0186C20.716 10.2014 21.9978 9.59833 23.04 9.16211L0.260742 9.16211V8.16211L23.0947 8.16211C22.0439 7.72509 20.7441 7.11496 19.2725 6.28125C17.2737 5.14878 16.0685 3.87911 15.3604 2.87695C15.0071 2.37693 14.7792 1.94492 14.6377 1.63281C14.567 1.47686 14.5175 1.35068 14.4854 1.26074C14.4694 1.21606 14.4574 1.18033 14.4492 1.1543C14.4451 1.1413 14.4418 1.1301 14.4395 1.12207C14.4384 1.11835 14.4382 1.11491 14.4375 1.1123C14.4372 1.11125 14.4358 1.11026 14.4355 1.10937L14.4346 1.10742L14.4355 1.10645L15.3984 0.84082C15.3992 0.843255 15.4013 0.847929 15.4033 0.854492C15.4078 0.868722 15.4153 0.892652 15.4268 0.924805C15.4501 0.990146 15.4901 1.09115 15.5488 1.2207C15.6664 1.48012 15.8639 1.85662 16.1777 2.30078C16.8046 3.18777 17.9005 4.35543 19.7656 5.41211C21.6726 6.49244 23.277 7.1834 24.4004 7.60352C24.9618 7.81345 25.4036 7.95573 25.7021 8.04492C25.8513 8.08947 25.9659 8.12073 26.041 8.14062L26.124 8.16211H26.2832V9.16211H26.0186Z" fill="#FCFCFC"/>
</svg>
